<svg xmlns="http://www.w3.org/2000/svg" viewBox="0 0 512 512" width="512" height="512" role="img" aria-label="Pollazo Galapagueño">
  <defs>
    <linearGradient id="bg" x1="0" y1="0" x2="0" y2="1">
      <stop offset="0" stop-color="#ffe36b"/>
      <stop offset="1" stop-color="#ffb300"/>
    </linearGradient>
    <linearGradient id="word" x1="0" y1="0" x2="0" y2="1">
      <stop offset="0" stop-color="#ff5a00"/>
      <stop offset="1" stop-color="#ffb000"/>
    </linearGradient>
  </defs>
  <rect width="512" height="512" rx="96" fill="#fffaf2"/>
  <circle cx="256" cy="256" r="238" fill="url(#bg)" stroke="#ff4b00" stroke-width="18"/>

  <text x="256" y="195" text-anchor="middle" font-family="Arial Rounded MT Bold, Arial, sans-serif" font-size="103" font-weight="900" fill="url(#word)" stroke="#ffffff" stroke-width="13" paint-order="stroke fill">Pollazo</text>
  <text x="256" y="258" text-anchor="middle" font-family="Arial, sans-serif" font-size="45" font-weight="900" fill="#111111" stroke="#ffffff" stroke-width="9" paint-order="stroke fill">GALAPAGUEÑO</text>

  <g stroke="#111111" stroke-width="8" stroke-linejoin="round" stroke-linecap="round">
    <ellipse cx="290" cy="373" rx="93" ry="82" fill="#ffffff"/>
    <circle cx="246" cy="326" r="53" fill="#ffffff"/>
    <path d="M208 311c-13-22-5-43 8-58 5 20 18 14 25-8 9 17 22 15 32-4 3 19 18 22 33 17-3 28-22 43-45 46" fill="#ff4b00"/>
    <path d="M200 334l-43 18 42 17z" fill="#ffb300"/>
    <circle cx="232" cy="316" r="7" fill="#111111" stroke="none"/>
    <path d="M247 340c13 12 30 11 40-3" fill="none"/>
    <path d="M319 352c35-32 66-18 77 1-29-3-43 11-54 31" fill="#ffd04a"/>
    <path d="M221 381c-31 22-46 55-32 77 24-9 36-25 45-48" fill="#ffffff"/>
    <path d="M333 386c27 11 42 34 45 59" fill="none"/>
  </g>
</svg>
